<svg width="712" height="562" viewBox="0 0 712 562" fill="none" xmlns="http://www.w3.org/2000/svg">
<g filter="url(#filter0_d_34_7)">
<g opacity="0.1" clip-path="url(#clip0_34_7)">
<path d="M213.436 154.091C247.658 146.829 283.938 147.753 317.336 137.143C362.404 123.116 397.297 90.5151 435.042 63.8601C473.193 37.5755 521.849 16.0784 567.065 29.6225C627.217 47.5578 648.538 115.254 660.533 172.568C673.354 233.603 686.175 294.639 698.997 356.046C706.022 388.424 712.257 423.786 695.486 453.309C674.324 490.681 624.818 503.986 580.115 510.931C402.516 539.45 -65.3245 561.323 65.7237 269.263C91.2147 212.122 148.213 167.852 213.436 154.091Z" fill="url(#paint0_linear_34_7)"/>
</g>
<g opacity="0.1" clip-path="url(#clip1_34_7)">
<path d="M185.717 167.451C219.263 157.525 255.504 155.598 287.966 142.398C331.794 124.877 364.019 89.6373 399.556 60.1014C435.526 30.9029 482.344 5.65243 528.483 15.6051C589.858 28.7629 616.427 94.5766 632.884 150.772C650.457 210.612 668.03 270.453 685.634 330.664C695.179 362.39 704.171 397.154 689.77 427.903C671.606 466.82 623.297 483.97 579.278 494.404C404.466 536.777 -60.2136 595.31 47.5022 293.864C68.4286 234.897 121.776 186.29 185.717 167.451Z" fill="url(#paint1_linear_34_7)"/>
</g>
<path d="M139.546 477.569C139.546 477.569 109.76 483.021 108.307 483.021C96.3205 483.748 46.9202 498.651 48.3732 508.828C49.0997 510.282 56.0012 512.1 58.9071 507.011C69.0777 511.736 72.7101 510.282 79.6116 507.374C84.3337 505.557 88.3293 504.467 92.3249 508.465C95.9573 512.463 107.581 516.098 114.119 512.463C119.931 509.192 117.751 503.74 122.11 499.378C122.474 499.014 151.533 492.108 152.259 491.745C157.708 487.383 141.725 476.478 139.546 477.569Z" fill="#F4A082"/>
<path fill-rule="evenodd" clip-rule="evenodd" d="M530.752 140.619C530.752 140.619 521.671 99.5458 486.8 88.6413C460.284 80.2812 413.79 79.5542 395.991 119.901C376.013 166.063 403.982 161.338 390.906 181.693C377.829 202.048 357.851 195.869 354.219 212.225C350.586 228.582 365.116 251.118 360.757 260.205C356.035 269.292 333.151 286.012 338.963 300.552C345.864 317.999 360.031 322.361 354.945 331.448C345.138 348.895 327.702 345.624 330.245 349.622C332.788 353.62 387.273 377.247 405.072 358.345C418.512 344.533 411.973 321.997 414.153 311.456C418.875 290.374 449.387 280.197 468.638 272.564C488.253 264.93 490.433 236.215 495.881 222.766C501.693 209.681 541.649 210.771 530.752 140.619Z" fill="#1D3542"/>
<path d="M484.984 97.7291C468.639 88.6421 426.503 85.3707 408.341 125.717C391.269 163.883 417.422 173.697 404.346 193.689C391.269 213.68 370.565 208.955 366.932 225.312C363.3 241.668 377.829 256.935 373.107 266.022C368.385 275.109 347.317 286.74 353.129 300.916C360.031 318.363 374.923 323.088 348.407 348.532" stroke="#01080A" stroke-miterlimit="10" stroke-linecap="round" stroke-linejoin="round"/>
<path d="M398.17 117.719C378.192 156.612 395.628 155.158 382.188 176.967C368.748 198.776 349.86 194.051 345.864 211.498C341.868 228.945 358.577 250.027 353.855 259.841C349.133 269.655 329.882 284.558 339.326 300.188" stroke="#01080A" stroke-miterlimit="10" stroke-linecap="round" stroke-linejoin="round"/>
<path d="M488.98 108.269C472.634 99.1819 468.275 114.812 417.785 127.534C400.713 165.699 431.588 177.694 418.512 198.049C405.435 218.404 384.73 213.315 381.098 229.672C377.466 246.029 391.995 261.295 387.273 270.382C382.551 279.469 361.483 291.101 367.295 305.277C374.197 322.724 389.089 327.449 362.573 352.893" stroke="#01080A" stroke-miterlimit="10" stroke-linecap="round" stroke-linejoin="round"/>
<path d="M445.754 136.985C426.503 174.06 457.015 187.872 442.848 207.5C428.682 227.129 408.341 220.949 403.619 236.943C399.26 252.936 413.063 268.929 407.978 278.016C402.892 287.103 381.098 297.281 386.183 312.183C392.359 329.994 401.076 330.721 373.107 355.074" stroke="#01080A" stroke-miterlimit="10" stroke-linecap="round" stroke-linejoin="round"/>
<path d="M477.356 147.525C454.472 182.42 483.168 199.14 467.186 217.314C451.203 235.488 431.225 227.128 425.413 242.758C419.238 258.388 431.225 275.471 425.413 283.831C419.238 292.191 396.718 300.188 400.35 315.454C404.709 333.629 413.063 335.446 382.915 356.891" stroke="#01080A" stroke-miterlimit="10" stroke-linecap="round" stroke-linejoin="round"/>
<path d="M456.652 177.694C455.199 185.691 454.472 216.587 450.477 215.86C449.024 215.496 437.763 216.95 435.947 216.95C423.234 218.768 401.077 215.86 396.354 228.218C391.996 239.123 437.037 279.833 430.135 306.731C427.23 317.999 415.606 356.891 414.88 368.523C466.822 377.973 520.945 369.25 520.218 364.888C520.218 336.173 505.689 321.633 508.595 298.007C510.774 295.099 518.402 271.109 518.765 263.84C519.129 256.933 552.183 234.398 535.111 223.13C513.68 209.317 487.164 219.131 486.437 214.043C485.711 208.954 486.074 195.868 484.258 181.693C482.442 168.971 458.105 169.334 456.652 177.694Z" fill="#F4A082"/>
<path opacity="0.6" d="M482.441 187.872C482.441 193.688 472.634 202.411 463.553 202.048C454.472 202.048 454.393 198.365 455.293 192.282C455.293 186.466 454.109 180.239 463.19 180.239C472.634 180.602 482.441 181.693 482.441 187.872Z" fill="#DB8C70"/>
<path d="M438.127 149.344C438.127 149.344 432.315 143.165 431.952 150.798C431.225 166.791 440.669 168.972 441.759 169.335C443.212 169.699 438.127 149.344 438.127 149.344Z" fill="#F4A082"/>
<path d="M502.056 149.706C502.056 149.706 507.868 143.526 508.231 151.16C508.958 167.153 499.514 169.334 498.424 169.697C496.971 170.061 502.056 149.706 502.056 149.706Z" fill="#F4A082"/>
<path fill-rule="evenodd" clip-rule="evenodd" d="M438.49 133.713C437.763 139.165 437.037 145.708 437.4 152.614C437.4 184.964 456.652 193.688 473.361 194.051C495.518 195.142 506.415 164.609 504.236 146.799C502.783 135.531 501.33 130.442 497.698 123.536C484.984 105.362 488.617 119.537 438.49 133.713Z" fill="#F4A082"/>
<path d="M519.068 251.666C513.85 244.123 509.602 229.656 508.036 223.139C506.469 216.623 504.997 215.558 504.997 215.558C504.997 215.558 500.62 214.544 499.186 215.66C499.569 216.744 510.237 245.277 506.656 248.248C503.795 250.842 477.517 264.752 467.417 268.927C457.178 265.107 428.616 252.155 425.666 249.661C422.347 246.811 431.33 218.611 431.674 217.514C429.425 217.064 426.05 217.514 426.05 217.514C426.05 217.514 424.753 218.05 423.414 224.617C422.075 231.184 420.13 244.669 415.918 253.104C409.257 267.034 409.548 283.752 423.226 297.328C423.965 298.042 425.106 300.93 425.857 302.371C426.978 304.169 423.808 330.763 423.808 330.763C448.701 341.598 500.942 337.414 514.241 329.184C514.241 329.184 512.926 295.398 513.64 294.658C525.811 284.267 524.285 259.209 519.068 251.666Z" fill="#FFD2B9"/>
<path d="M470.818 140.256C472.634 148.252 471.181 156.613 470.455 158.067C469.002 160.247 465.369 158.43 465.733 160.247C466.459 164.609 471.908 164.973 474.45 163.155" stroke="#EFAFA3" stroke-width="1.38" stroke-miterlimit="10" stroke-linecap="round" stroke-linejoin="round"/>
<path opacity="0.69" d="M446.844 137.711C449.024 136.621 453.746 135.894 457.378 137.348" stroke="#682C1A" stroke-width="1.31" stroke-miterlimit="10" stroke-linecap="round" stroke-linejoin="round"/>
<path d="M458.468 149.343C456.652 152.251 450.114 152.614 447.934 149.706" stroke="#49241B" stroke-miterlimit="10" stroke-linecap="round" stroke-linejoin="round"/>
<path d="M494.065 149.707C492.249 152.614 485.711 152.978 483.531 150.07" stroke="#49241B" stroke-miterlimit="10" stroke-linecap="round" stroke-linejoin="round"/>
<path opacity="0.69" d="M493.339 138.076C491.159 136.985 486.074 136.258 482.442 137.712" stroke="#682C1A" stroke-width="1.31" stroke-miterlimit="10" stroke-linecap="round" stroke-linejoin="round"/>
<path d="M463.19 173.425C463.916 174.879 472.634 179.241 478.446 173.062" stroke="#BC4926" stroke-width="1.45" stroke-miterlimit="10" stroke-linecap="round" stroke-linejoin="round"/>
<path opacity="0.24" fill-rule="evenodd" clip-rule="evenodd" d="M457.741 162.792C456.288 165.7 451.566 166.427 447.208 164.973C442.849 163.156 440.669 159.521 442.485 156.613C443.938 153.705 448.66 152.978 453.019 154.432C457.378 156.249 459.194 159.884 457.741 162.792Z" fill="#ED5851"/>
<path opacity="0.24" fill-rule="evenodd" clip-rule="evenodd" d="M484.984 163.156C486.8 165.7 491.522 166.427 495.518 164.246C499.514 162.066 501.33 158.431 499.514 155.523C497.697 152.979 492.975 152.252 488.98 154.432C484.621 156.613 482.805 160.612 484.984 163.156Z" fill="#ED5851"/>
<path d="M469.728 365.251C469.728 367.068 469.002 368.886 467.912 368.886C466.823 368.886 466.096 367.432 466.096 365.251C466.096 363.434 466.823 361.616 467.912 361.616C468.639 361.98 469.728 363.434 469.728 365.251Z" fill="#EFAFA3"/>
<path d="M433.768 117.72C439.216 108.633 462.464 93.73 486.074 96.2744" stroke="#01080A" stroke-miterlimit="10" stroke-linecap="round" stroke-linejoin="round"/>
<path d="M626.647 282.377C630.279 270.746 617.203 252.208 599.767 259.478C578.336 264.93 518.765 351.075 518.765 351.075C518.765 351.075 477.356 365.251 416.696 355.074C414.516 360.162 407.978 374.702 407.978 374.702C407.978 374.702 354.219 403.78 274.307 440.129C243.068 454.304 139.183 476.113 139.183 477.204C139.183 480.839 139.183 493.561 139.183 493.561C139.183 493.561 261.593 507.373 299.37 466.663C299.37 466.663 397.807 457.212 470.455 423.772C522.761 428.134 543.466 399.419 575.43 360.162C600.494 329.266 620.835 300.915 626.647 282.377Z" fill="#1F5148"/>
<path d="M415.928 358.097C415.928 358.097 464.965 372.967 517.676 354.71" stroke="#1D4941" stroke-width="1.44" stroke-miterlimit="10" stroke-linecap="round" stroke-linejoin="round"/>
<path d="M414.354 361.477C414.354 361.477 466.54 377.923 516.223 358.709" stroke="#1D4941" stroke-width="1.44" stroke-miterlimit="10" stroke-linecap="round" stroke-linejoin="round"/>
<path d="M519.401 351.113L510.048 373.247" stroke="#1D4941" stroke-width="1.44" stroke-miterlimit="10" stroke-linecap="round"/>
<path d="M594.682 420.502C594.682 420.502 587.78 449.217 587.417 450.671C586.691 457.94 590.323 470.299 583.058 498.287C595.408 500.104 591.413 509.918 582.332 509.918C556.542 509.918 563.443 493.562 567.439 482.294C569.255 477.205 566.713 471.753 562.717 468.118C558.721 464.483 554.363 453.215 557.632 446.672C560.901 440.857 568.529 442.311 572.524 437.949C572.888 437.585 572.161 413.232 572.524 412.505C576.883 405.962 595.408 418.321 594.682 420.502Z" fill="#F4A082"/>
<path d="M626.647 275.834C631.369 312.909 594.319 404.507 594.319 435.766C594.319 435.766 579.789 442.309 572.161 433.949C573.251 407.051 551.093 359.072 586.327 311.455C607.758 282.013 613.57 284.194 626.647 275.834Z" fill="#1F5148"/>
<path d="M579.212 316.37C579.212 316.37 562.978 343.455 566.414 377.247" stroke="#1D4941" stroke-width="1.75" stroke-miterlimit="10" stroke-linecap="round"/>
<path d="M396.354 228.219C391.269 232.581 364.026 343.807 372.744 348.169C381.825 352.53 469.728 309.276 469.728 309.276C469.728 309.276 467.912 260.206 467.912 247.484C462.827 246.757 456.652 299.098 456.652 299.098C456.652 299.098 403.619 319.09 400.713 321.634C397.807 324.179 413.426 257.661 416.696 252.573C417.785 247.484 401.803 224.221 396.354 228.219Z" fill="#F4A082"/>
<path d="M538.743 228.219C543.829 232.581 571.072 343.807 562.354 348.169C553.273 352.53 465.733 309.276 465.733 309.276C465.733 309.276 467.549 260.206 467.549 247.484C472.634 246.757 478.809 299.098 478.809 299.098C478.809 299.098 531.842 319.09 534.748 321.634C537.654 324.179 522.035 257.661 518.765 252.573C517.312 247.484 533.658 224.221 538.743 228.219Z" fill="#F4A082"/>
<path d="M467.549 310.003L467.912 246.03" stroke="#DB8C70" stroke-width="1.38" stroke-miterlimit="10" stroke-linecap="round" stroke-linejoin="round"/>
<path d="M472.634 353.983C472.634 355.8 471.544 357.254 470.455 357.254C469.365 357.254 468.639 355.437 468.639 353.619C468.639 351.802 469.728 350.348 470.818 350.348C471.908 350.348 472.997 351.802 472.634 353.983Z" fill="#DB8C70"/>
<path d="M408.341 376.883L440.669 393.24" stroke="#1D4941" stroke-width="1.44" stroke-miterlimit="10" stroke-linecap="round"/>
<path opacity="0.56" d="M613.358 512.564C613.378 514.466 490.779 517.34 339.408 518.916C188.04 520.492 65.4087 520.247 65.3881 518.268C65.3683 516.366 187.967 513.492 339.335 511.916C490.706 510.341 613.339 510.661 613.358 512.564Z" fill="black" fill-opacity="0.2"/>
<path opacity="0.5" d="M39.4768 116.32C39.4487 117.031 39.3792 117.756 39.3511 118.466C39.2374 120.514 39.2214 122.574 39.2054 124.634C39.1894 126.694 39.271 128.766 39.4355 130.808C39.5854 132.81 39.8328 134.823 40.0241 136.809C40.376 139.906 40.5887 143.005 41.0235 146.072C41.1546 147.1 41.271 148.085 41.4288 149.056C41.5666 149.708 41.8435 150.357 42.0642 150.979C42.1378 151.186 42.2796 151.322 42.4214 151.459C42.6193 151.622 42.9805 151.587 43.0875 151.363C43.153 151.153 43.2748 150.969 43.2841 150.733C43.3055 150.398 43.2855 150.078 43.2654 149.759C42.9202 146.286 42.6166 142.799 42.2714 139.326C42.04 136.701 41.9476 134.072 42.0359 131.426C42.1549 128.209 42.3301 125.019 42.6591 121.868C42.7889 120.654 42.8624 119.414 42.9507 118.216C43.1045 116.807 43.2021 115.372 43.356 113.963C43.5954 111.217 44.1424 108.549 44.7457 105.907C44.8233 105.599 44.9008 105.292 44.8955 105.013C45.0038 104.134 44.4313 103.311 43.5939 103.187C42.7419 103.023 41.9981 103.427 41.6383 104.255C41.4898 104.494 41.4537 104.787 41.3762 105.095C40.9374 106.885 40.2887 108.609 39.5276 110.28C38.8588 111.684 38.2167 113.033 37.5332 114.396C37.3995 114.677 37.2242 114.972 37.049 115.268C35.9976 117.041 35.1148 118.895 34.2882 120.776C34.0086 121.436 33.8414 122.149 33.7719 122.874C33.6542 123.989 33.8294 125.141 34.3364 126.175C34.4394 126.465 34.6106 126.685 34.8648 126.874C35.0066 127.011 35.2848 127.006 35.4359 126.905C35.5871 126.805 35.6821 126.678 35.6647 126.497C35.6593 126.219 35.5978 125.914 35.551 125.651C35.361 124.457 35.4078 123.274 35.8599 122.179C36.2732 121.239 36.7013 120.34 37.227 119.453C37.8449 118.3 38.5338 117.215 39.208 116.089C39.2347 116.033 39.3176 116.003 39.4006 115.974C39.4447 116.098 39.4889 116.223 39.4768 116.32ZM91.7727 133.573C92.1459 133.441 92.4777 133.323 92.8509 133.19C94.6607 132.501 96.5293 131.978 98.1947 131.014C98.2362 130.999 98.2776 130.985 98.3191 130.97C99.7116 130.289 101.006 129.596 102.198 128.613C102.705 128.2 103.254 127.772 103.746 127.317C103.992 127.089 104.238 126.862 104.428 126.608C104.633 126.395 104.725 126.129 104.788 125.78C104.911 124.942 104.027 124.556 103.461 124.803C103.254 124.877 103.102 124.977 102.91 125.092C102.264 125.508 101.618 125.924 100.998 126.284C100.213 126.703 99.3838 126.997 98.6428 127.54C98.0943 127.968 97.475 128.328 96.8851 128.771C95.2933 129.943 93.5571 130.839 91.7352 131.625C90.3133 132.223 88.9356 132.946 87.4428 133.475C87.3184 133.52 87.2354 133.549 87.1258 133.635C86.6429 133.853 86.2015 134.056 85.76 134.259C85.4016 134.433 85.0431 134.607 84.726 134.766C84.3261 134.955 83.9676 135.129 83.5677 135.317C83.2921 135.462 82.9604 135.58 82.6848 135.724C81.6508 136.231 80.6583 136.723 79.639 137.272C78.371 137.908 77.1176 138.587 75.994 139.499C75.8576 139.641 75.6649 139.756 75.4723 139.871C75.4723 139.871 75.3894 139.9 75.3747 139.859C75.3185 139.832 75.2476 139.764 75.2329 139.722C75.2663 139.29 75.3412 138.843 75.3894 138.453C75.5164 137.101 75.7411 135.76 75.8267 134.423C75.9725 132.597 76.1036 130.729 76.1102 128.906C76.1142 126.944 76.1329 125.023 76.1102 123.117C75.9443 118.834 75.7784 114.551 75.9321 110.247C76.0445 107.406 76.1983 104.55 76.6303 101.689C76.7172 101.145 76.7895 100.559 76.9032 99.9583C76.9245 99.6238 77.0021 99.3162 76.9821 98.9965C77.0061 98.8012 76.9473 98.6353 76.8884 98.4695C76.8269 98.1645 76.4336 97.9772 76.0872 98.0535C75.8384 98.1418 75.6043 98.2715 75.4973 98.4962C75.322 98.7919 75.1883 99.0728 75.0692 99.3951C74.4887 101.048 74.1035 102.726 73.8721 104.442C73.5364 106.522 73.3398 108.599 73.2408 110.689C73.0349 114.45 72.9118 118.182 72.9279 121.912C72.952 123.164 72.9346 124.43 72.9173 125.697C72.8959 127.479 72.8478 129.317 72.7849 131.113C72.7288 133.981 72.6459 136.905 72.6044 139.815C72.5549 140.859 72.5469 141.889 72.5536 142.961C72.5175 143.254 72.5229 143.532 72.6259 143.822C72.7021 144.169 72.971 144.4 73.3201 144.463C73.6278 144.54 73.918 144.437 74.0933 144.142C74.2417 143.902 74.3755 143.622 74.4678 143.355C74.9172 142.122 75.6502 141.162 76.6642 140.335C76.925 140.149 77.1711 139.922 77.4734 139.721C79.1093 138.674 80.8041 137.792 82.5992 137.062C83.3871 136.782 84.175 136.502 84.9481 136.181C85.2798 136.064 85.6263 135.987 85.8871 135.802C86.5479 135.427 87.2529 135.177 87.9578 134.927C89.2433 134.471 90.5287 134.014 91.7727 133.573ZM88.2811 128.836C88.7935 130.148 89.6081 131.26 90.6836 132.185C91.3069 132.758 92.0226 133.064 92.8452 133.146C93.514 133.189 94.2096 133.175 94.8289 132.815C95.3921 132.429 95.982 131.986 96.4448 131.448C97.234 130.515 97.8961 129.486 98.4459 128.404C99.0638 127.251 99.4718 126.032 99.9212 124.799C100.633 122.725 101.191 120.613 101.595 118.462C101.822 117.261 102.049 116.06 102.179 114.847C102.297 113.731 102.358 112.589 102.378 111.461C102.406 107.856 102.047 104.342 100.701 100.945C100.671 100.862 100.627 100.737 100.583 100.613C100.083 99.203 99.307 97.9376 98.4214 96.7578C97.6215 95.6877 96.5755 94.845 95.2445 94.3836C93.9965 93.8927 92.7297 93.8753 91.4884 94.4558C90.647 94.8478 89.906 95.3909 89.2947 96.168C88.0989 97.6662 87.5478 99.4025 87.4167 101.27C87.2442 103.152 87.489 105.026 87.9973 106.853C88.103 107.283 88.1525 107.685 88.0214 108.105C87.9559 108.315 87.9318 108.51 87.8662 108.72C87.2576 111.084 86.8443 113.472 86.5434 115.913C86.3655 117.517 86.3415 119.159 86.415 120.814C86.5676 122.954 86.803 125.065 87.6631 127.094C87.8691 127.675 88.0751 128.255 88.2811 128.836ZM90.2124 101.912L90.2659 101.799C89.9168 100.289 90.2659 98.9048 91.0203 97.61C91.6115 96.5131 92.6308 95.9647 93.7972 95.8309C94.6172 95.7734 95.3863 95.9673 96.0364 96.4837C96.7427 97.0267 97.3808 97.6407 97.8824 98.3965C98.5552 99.3716 99.1451 100.376 99.501 101.51C99.5304 101.593 99.5598 101.676 99.5892 101.759C100.641 104.328 101.082 107.019 101.162 109.745C101.249 112.095 101.141 114.421 100.713 116.768C100.425 118.457 100.096 120.161 99.6135 121.827C99.1333 123.631 98.4993 125.397 97.6553 127.097C97.2005 128.052 96.6334 128.954 95.9953 129.787C95.6689 130.183 95.3278 130.537 94.9158 130.824C94.5988 130.983 94.2818 131.142 93.9915 131.245C93.4792 131.38 92.9763 131.278 92.5803 130.952C91.8593 130.367 91.3992 129.597 91.0634 128.782C90.6835 127.843 90.3718 126.833 90.1431 125.794C89.7766 124.103 89.6321 122.38 89.5852 120.67C89.5103 118.222 89.7283 115.81 90.1269 113.381C90.151 113.185 90.2165 112.975 90.2821 112.765C90.3088 112.709 90.3356 112.653 90.3891 112.541C90.5135 112.497 90.5991 112.606 90.67 112.674C91.0004 113.211 91.3723 113.733 91.7027 114.269C92.4785 115.534 93.3105 116.827 94.279 117.977C94.592 118.333 94.905 118.688 95.2448 118.988C95.4013 119.166 95.626 119.273 95.8507 119.38C96.0755 119.487 96.3537 119.482 96.6025 119.393C97.0172 119.246 97.3021 118.865 97.2379 118.421C97.1175 117.95 96.9703 117.535 96.6988 117.165C96.2386 116.394 95.7517 115.68 95.2916 114.91C94.4007 113.452 93.4683 112.008 92.6871 110.465C92.1534 109.487 91.8685 108.421 91.4738 107.44C91.3708 107.15 91.407 106.857 91.4845 106.549C91.6584 105.461 91.847 104.413 92.0209 103.324C92.069 102.934 92.0878 102.46 92.0797 102.043C92.0664 101.347 91.1848 101.1 90.7608 101.484C90.6097 101.584 90.417 101.699 90.2659 101.799L90.2124 101.912ZM127.034 79.3212C126.828 78.7407 126.607 78.1187 126.401 77.5382C126.242 77.2211 126.166 76.8747 125.98 76.6139C125.85 76.3798 125.664 76.1189 125.41 75.929C125.212 75.7658 124.905 75.6882 124.588 75.8474C124.297 75.9504 124.178 76.2728 124.184 76.551C124.174 76.7878 124.221 77.0513 124.309 77.3001C124.695 78.5173 124.887 79.8496 125.314 81.0522C125.388 81.2595 125.42 81.4815 125.452 81.7036C125.513 82.0086 125.631 82.3403 125.693 82.6453C125.813 83.1161 125.877 83.5602 125.998 84.0311C126.238 84.9728 126.272 85.988 126.403 87.0153C126.852 90.124 126.899 93.2822 126.57 96.4337C126.269 98.8749 125.8 101.236 125.135 103.573C124.524 105.797 123.688 107.915 122.781 109.964C121.859 111.972 120.754 113.858 119.635 115.702C119.014 116.716 118.337 117.704 117.519 118.554C117.287 118.823 117.014 119.107 116.727 119.349C116.576 119.449 116.383 119.564 116.176 119.638C115.859 119.797 115.548 119.58 115.528 119.261C115.511 119.08 115.52 118.843 115.544 118.648C115.744 116.71 115.958 114.813 116.157 112.875C116.311 111.466 116.408 110.031 116.562 108.622C116.626 107.619 116.732 106.601 116.755 105.613C116.872 103.05 116.99 100.487 117.066 97.9386C117.179 95.0975 117.264 92.3125 117.098 89.4767C117.078 89.157 117.043 88.7958 117.023 88.4761C116.974 88.0735 116.578 87.7471 116.173 87.6575C115.782 87.6094 115.382 87.798 115.222 88.1351C115.061 88.4722 114.927 88.7531 114.864 89.1022C114.712 89.8566 114.533 90.6672 114.436 91.4484C114.177 93.8749 113.959 96.2867 113.699 98.7131C113.687 98.8108 113.675 98.9084 113.649 98.9646C113.496 101.166 113.317 103.424 113.164 105.626C112.997 107.786 112.815 109.905 112.731 112.036C112.676 114.25 112.678 116.49 113.138 118.708C113.305 119.443 113.609 120.035 114.052 120.625C114.48 121.173 115.166 121.397 115.844 121.203C116.342 121.026 116.783 120.823 117.151 120.412C117.56 119.987 118.052 119.532 118.432 119.024C119.085 118.232 119.667 117.372 120.29 116.497C121.009 115.495 121.697 114.41 122.289 113.313C123.016 112.075 123.759 110.878 124.374 109.585C124.989 108.293 125.59 106.96 126.107 105.655C126.652 104.295 127.17 102.991 127.575 101.633C128.492 98.6929 129.2 95.6872 129.378 92.6361C129.467 90.7834 129.418 88.9335 129.132 87.0742C128.991 86.2836 128.878 85.4369 128.598 84.649C128.304 83.8197 128.009 82.9904 127.881 82.1022C127.861 81.7825 127.716 81.5069 127.628 81.2581C127.434 80.5799 127.172 79.9727 126.951 79.3507C126.993 79.3359 126.993 79.3359 127.034 79.3212ZM143.683 91.8084C142.174 92.9507 140.878 94.2978 139.824 95.9324C138.515 98.0311 137.835 100.327 137.8 102.86C137.813 104.21 138.13 105.498 138.669 106.754C139.438 108.395 140.86 109.245 142.585 109.239C143.657 109.232 144.681 108.962 145.618 108.443C146.732 107.768 147.832 107.051 148.775 106.156C149.279 105.603 149.854 105.119 150.344 104.525C150.887 103.819 151.444 103.154 151.987 102.448C153.005 101.106 154.038 99.806 155.041 98.4229C155.353 97.9855 155.594 97.4798 155.849 97.0157C155.929 96.8471 155.927 96.708 155.909 96.5274C155.921 96.4298 155.794 96.3348 155.723 96.2666C155.653 96.1984 155.513 96.2011 155.487 96.2572C155.309 96.4137 155.089 96.585 154.926 96.7829C154.098 97.8704 153.229 98.9727 152.401 100.06C151.003 101.91 149.407 103.597 147.655 105.106C146.531 106.018 145.349 106.765 143.951 107.167C143.397 107.317 142.882 107.313 142.323 107.185C141.918 107.095 141.649 106.864 141.434 106.52C141.277 106.342 141.218 106.176 141.145 105.969C140.809 105.154 140.598 104.295 140.608 103.404C140.555 102.069 140.696 100.759 141.202 99.552C141.973 97.6445 142.912 95.8173 144.217 94.2335C145.169 93.1019 146.181 92.1361 147.49 91.4846C147.615 91.4405 147.739 91.3963 147.849 91.3107C147.958 91.2251 148.039 91.0566 148.021 90.876C148.045 90.6807 147.859 90.4199 147.664 90.3958C147.427 90.3864 147.176 90.3356 146.939 90.3262C146.702 90.3169 146.439 90.3637 146.173 90.2714C145.445 90.0627 144.851 89.5732 144.503 88.8562C144.085 88.071 143.79 87.2417 143.703 86.3388C143.576 84.7965 143.769 83.2341 144.213 81.7226C144.645 80.3087 145.216 78.8921 145.956 77.5558C146.722 76.1633 147.728 74.9193 149.089 74.0164C149.939 73.3877 150.852 73.064 151.849 72.8499C152.821 72.6921 153.619 72.969 154.218 73.7368C154.546 74.134 154.832 74.546 154.994 75.0022C155.46 76.0509 155.676 77.1879 155.795 78.3128C155.813 78.4934 155.845 78.7154 155.919 78.9228C155.948 79.0057 156.075 79.1007 156.187 79.1542C156.3 79.2077 156.549 79.1194 156.602 79.007C156.656 78.8947 156.751 78.7676 156.763 78.6699C156.852 78.2646 156.915 77.9155 156.922 77.5396C156.918 76.6073 156.816 75.6629 156.507 74.7921C156.166 73.6993 155.591 72.7362 154.74 71.9176C153.804 70.9892 152.627 70.5666 151.333 70.6054C150.179 70.6415 149.086 70.9826 148.052 71.4896C146.108 72.4594 144.634 73.9629 143.47 75.6831C142.713 76.8389 142.095 77.9919 141.675 79.3082C140.913 81.633 140.624 83.9765 141.004 86.3629C141.288 88.0831 142.134 89.4167 143.491 90.4761C143.703 90.6808 143.943 90.8292 144.197 91.0192C144.268 91.0874 144.271 91.2265 144.315 91.3509C144.095 91.5221 143.917 91.6786 143.683 91.8084Z" fill="black"/>
<path opacity="0.5" d="M59.3452 163.861L60.6574 163.836L60.935 164.618L59.7616 165.035L60.9603 165.93C60.8554 167.436 59.0006 168.828 55.396 170.107L52.7968 171.47L52.822 172.782L53.2132 172.643C53.0895 174.777 54.4859 183.676 57.4025 199.342L60.3803 204.01L59.9891 204.149C59.4063 204.356 58.4221 203.237 57.0366 200.793L56.0398 196.743L55.901 196.351L55.5098 196.49L55.7874 197.273C55.0051 197.55 54.7065 197.95 54.8916 198.471L55.0304 198.862L58.0334 204.843L58.1722 205.234L57.3899 205.512L55.409 204.894L55.1566 205.423L54.7655 205.562C52.9223 203.678 51.7068 201.907 51.1189 200.25L51.6489 200.503L52.04 200.364L50.2862 197.903L51.3208 197.096L50.6268 195.14L49.8445 195.418L49.7057 195.027C50.488 194.749 50.7866 194.35 50.6016 193.828L50.4628 193.437L49.6805 193.714C48.9402 191.628 48.9612 190.447 49.7435 190.169L47.9392 185.084C48.2227 184.569 47.7726 181.646 46.589 176.315L43.9898 177.678L38.375 179.23L38.2362 178.838L40.0531 177.753L40.1919 178.144L40.4442 177.615L46.3114 175.533L45.895 174.359L39.9143 177.362L39.3844 177.11L38.9932 177.249L36.7852 178.473L35.3341 178.107L35.0313 176.012L34.5013 175.76C34.0387 174.456 35.3719 173.249 38.5011 172.139L59.3452 163.861ZM57.4147 165.867L57.5535 166.259L59.1181 165.703L58.9793 165.312L57.4147 165.867ZM50.7151 192.907L52.9864 201.79L53.7686 201.512L52.6835 199.695L52.4059 198.913L52.7718 197.462L52.3807 197.601L52.633 197.071L52.4942 196.68L51.9643 196.427L51.8255 196.036L52.0526 194.194L51.1062 192.768L50.7151 192.907ZM59.3652 163.699L60.5387 163.282L61.6238 165.099C62.4061 164.822 62.6584 164.292 62.3808 163.509L62.772 163.371L63.8318 163.875L64.2735 166.361L64.6646 166.222L64.4123 166.752L64.5511 167.143L65.081 167.396L65.2198 167.787L64.8287 167.925L65.3586 168.178L65.4974 168.569L69.6866 181.615L69.8254 182.007L70.2165 181.868L70.002 177.54L70.7843 177.262L70.6834 185.666L71.4657 185.388L71.4403 170.424L70.658 170.701L70.8978 176.341L70.1155 176.619L69.9767 176.228L70.494 168.998L70.8851 168.859L71.1627 169.641L74.0143 167.749C75.1934 167.762 75.8537 167.968 75.9952 168.367L76.2476 167.837L77.421 167.421L82.3167 176.253L82.7078 176.114C82.2942 174.948 81.9655 167.5 81.7219 153.771L82.1131 153.632L82.9206 154.666L83.3118 154.528L83.0342 153.745L83.4253 153.607C85.358 152.921 86.5399 152.942 86.9709 153.67L87.2484 154.452L86.8826 155.903L87.0214 156.294L87.8036 156.016L87.2232 153.14L88.0055 152.862L89.0654 153.367L89.2042 153.758L91.1996 187.634L90.165 188.441L89.8874 187.659L89.635 188.189L89.2439 188.328L88.7139 188.075C89.0841 189.119 88.878 189.779 88.0957 190.056C85.9443 190.613 84.7624 190.592 84.5502 189.993L84.9413 189.855C84.2179 188.643 83.3725 187.916 82.4052 187.672L77.787 179.622C77.3477 179.795 77.0785 184.001 76.9797 192.239L75.7179 194.889L75.3268 195.028L74.3805 193.602C76.0281 185.591 76.3098 179.766 75.2256 176.127C74.7803 177.062 74.4733 181.575 74.3047 189.665C73.9826 189.78 74.0163 191.529 74.4057 194.914L70.8854 196.164L69.9391 194.738L69.6867 195.268L69.2956 195.406C68.7948 193.995 68.0336 193.091 67.0118 192.694L66.4566 191.129L68.4376 191.747L65.2957 185.376L65.5481 184.846L65.0181 184.593L65.2705 184.063L64.8793 184.202L65.1317 183.672L63.1885 178.196L62.8857 176.102L62.4945 176.24L62.7469 175.711L59.1381 165.541L58.6082 165.288L58.4694 164.897L59.3652 163.699ZM82.4159 155.726C82.8169 169.072 83.2759 176.474 83.793 177.931L83.9318 178.322L84.3229 178.183L83.1982 155.449L82.4159 155.726ZM87.0735 171.042L87.5404 174.84L87.6792 175.231L88.0703 175.092L87.6034 171.294L87.4646 170.903L87.0735 171.042ZM88.0578 181.262L88.5246 185.06L88.8022 185.842L89.1934 185.703L88.5877 181.514L88.4489 181.123L88.0578 181.262ZM96.6678 151.576C96.884 152.38 97.5137 152.597 98.5567 152.227L99.8252 153.538L99.5498 154.076L99.941 153.937C100.029 160.123 101.153 166.918 103.314 174.32L104.009 176.716L104.538 176.968L104.654 177.367L104.379 177.906L104.77 177.767L104.495 178.305L105.696 180.961L105.928 181.76C105.131 183.942 104.865 185.505 105.13 186.447L103.566 187.002L101.401 186.889L100.982 183.955L98.9311 182.921L97.5624 176.801L95.4552 169.622L95.8901 168.146L95.427 166.549L94.9201 166.289L94.8043 165.889L95.5866 165.612L95.4708 165.212L94.9638 164.952L93.9143 156.957L93.5231 157.096L93.7985 156.557L93.0807 154.17L92.5738 153.909L92.458 153.51L96.6678 151.576ZM94.8406 160.151L95.6741 162.938L96.0652 162.799L95.2317 160.012L94.8406 160.151ZM95.6303 164.275L96.3251 166.671L96.7162 166.532L96.0215 164.136L95.6303 164.275ZM96.2813 168.008L96.999 170.395L97.3902 170.256L96.6724 167.869L96.2813 168.008ZM101.764 183.678L102.343 185.674L102.871 184.606L102.546 183.4L101.764 183.678ZM111.209 145.613C112.084 145.889 114.37 145.372 118.067 144.06L118.183 144.459L115.445 145.431L115.561 145.83C118.828 144.671 121.146 144.729 122.514 146.005L122.745 146.804L120.79 147.498L120.905 147.897L123.759 147.325L123.875 147.724L121.528 148.557L121.644 148.956C122.426 148.679 122.894 148.806 123.049 149.338C118.401 150.988 114.853 154.155 112.406 158.84L112.521 159.24C118.047 158.799 123.107 160.38 127.701 163.982L127.817 164.381C128.063 168.094 126.513 172.167 123.164 176.602L120.91 177.842L121.026 178.242L121.808 177.964C122.028 178.68 119.913 180.312 115.462 182.858L115.231 182.06L117.187 181.366L117.094 180.958C115.422 181.551 113.587 181.175 111.589 179.829C110.211 179.644 109.223 178.708 108.624 177.021C108.57 176.867 108.52 176.704 108.476 176.529L109.418 175.314L110.823 175.697L111.605 175.419C118.559 171.656 121.523 167.962 120.496 164.337C116.858 163.867 114.54 163.808 113.543 164.162L113.659 164.561L109.261 164.36L109.768 164.621L110.023 165.411C105.922 164.172 103.686 162.91 103.317 161.625L104.434 155.063L105.926 152.772L106.158 153.571L111.209 145.613ZM109.619 158.068L109.734 158.467L115.11 151.715L118.008 149.806L117.776 149.007L116.994 149.285C113.412 152.283 110.954 155.211 109.619 158.068ZM117.472 173.337L117.863 173.198L118.414 172.122L118.023 172.261L117.472 173.337ZM124.513 170.839L123.527 173.39L123.918 173.252L124.904 170.7L124.513 170.839ZM120.722 175.707L120.861 176.098L121.252 175.959L122.469 174.206L120.722 175.707ZM117.253 180.021L117.369 180.42L118.934 179.865L120.774 178.772L120.635 178.38L120.244 178.519L117.253 180.021ZM145.167 133.407L146.479 133.382L146.756 134.164L145.583 134.581L146.782 135.477C146.677 136.982 144.822 138.374 141.217 139.653L138.618 141.016L138.643 142.328L139.034 142.189C138.911 144.323 140.307 153.222 143.224 168.888L146.202 173.556L145.81 173.695C145.228 173.902 144.243 172.783 142.858 170.339L141.861 166.289L141.722 165.898L141.331 166.036L141.609 166.819C140.826 167.096 140.528 167.496 140.713 168.017L140.852 168.409L143.855 174.389L143.994 174.78L143.211 175.058L141.23 174.44L140.978 174.97L140.587 175.108C138.744 173.224 137.528 171.453 136.94 169.797L137.47 170.049L137.861 169.91L136.107 167.45L137.142 166.642L136.448 164.686L135.666 164.964L135.527 164.573C136.309 164.295 136.608 163.896 136.423 163.374L136.284 162.983L135.502 163.261C134.762 161.175 134.783 159.993 135.565 159.715L133.76 154.63C134.044 154.115 133.594 151.192 132.41 145.861L129.811 147.224L124.196 148.776L124.058 148.385L125.874 147.3L126.013 147.691L126.266 147.161L132.133 145.079L131.716 143.905L125.736 146.908L125.206 146.656L124.815 146.795L122.606 148.019L121.155 147.653L120.853 145.558L120.323 145.306C119.86 144.002 121.193 142.795 124.322 141.685L145.167 133.407ZM143.236 135.414L143.375 135.805L144.939 135.25L144.801 134.858L143.236 135.414ZM136.536 162.453L138.808 171.336L139.59 171.058L138.505 169.241L138.227 168.459L138.593 167.008L138.202 167.147L138.454 166.617L138.316 166.226L137.786 165.973L137.647 165.582L137.874 163.74L136.928 162.314L136.536 162.453ZM164.356 127.401L166.708 128.043C166.977 130.555 166.375 132.021 164.9 132.441L154.848 136.526L155.08 137.325L157.061 136.777L159.349 135.706L159.873 136.012L160.272 135.897L162.951 134.687L163.758 134.478L163.874 134.878L155.12 139.046L156.203 144.361L156.603 144.245L166.93 139.622L167.422 139.913L167.538 140.313L166.731 140.521L166.87 140.912L169.775 140.555L169.89 140.955C169.84 142.613 166.516 145.122 159.92 148.482L156.034 150.016L156.541 150.277L156.418 155.916L156.027 156.055L155.008 152.453L154.608 152.569L155.776 158.268C163.213 154.455 168.581 152.084 171.878 151.156L173.976 151.007L174.23 151.798L173.432 152.029L173.924 152.321L174.271 153.519C173.868 154.767 172.419 155.747 169.926 156.459L170.042 156.859L173.245 155.955L173.453 156.762L156.201 165.889L155.801 166.005C154.445 166.175 153.672 165.992 153.482 165.455L153.457 165.386L153.11 164.188L152.689 159.571L152.174 159.287L152.964 159.033L153.52 161.038L153.928 160.945C153.619 159.587 153.702 158.849 154.179 158.731L153.655 158.425L152.552 154.439L151.745 154.647L151.902 156.768L152.208 156.244L152.607 156.129L153.279 158.533L152.872 158.625L152.532 157.45L152.133 157.566L152.365 158.365L151.965 158.481L151.734 157.682L150.633 150.638L150.234 150.754L150.462 148.548L149.947 148.265L149.831 147.866L148.339 140.96L148.854 141.244L149.253 141.128L149.022 140.329L148.066 138.44L147.447 134.723L147.099 133.525L147.507 133.432L148.022 133.715L148.305 133.2L148.713 133.108L149.22 133.368L149.503 132.853L150.709 132.529L164.356 127.401ZM150.842 151.445L151.629 154.248L152.028 154.132L151.249 151.352L150.842 151.445ZM163.929 147.37L164.32 147.232L164.413 147.639L157.579 150.867L157.056 150.56L156.949 150.184L160.435 148.766L160.55 149.165L163.929 147.37ZM172.092 124.527L173.656 123.971L175.107 124.337L177.706 122.975C182.231 121.369 187.329 122.496 192.999 126.356L196.343 129.573L196.09 130.103L197.175 131.92L197.869 133.876C200.248 140.579 196.576 147.607 186.854 154.96L183.082 156.739C182.848 156.08 182.187 155.873 181.101 156.121L181.656 157.685L180.483 158.102L179.65 155.755L179.12 155.503L179.372 154.973L179.233 154.582C177.288 154.063 176.182 153.428 175.915 152.676C172.506 140.588 170.756 131.52 170.666 125.473L171.057 125.334L171.587 125.586L172.092 124.527ZM171.915 128.993L173.984 141.03L174.123 141.421L174.514 141.283L172.584 129.637L172.306 128.854L171.915 128.993ZM179.145 129.51C179.33 130.032 178.901 130.478 177.858 130.848C178.502 135.973 179.663 141.727 181.34 148.109C182.859 147.57 186.308 144.878 191.687 140.033L191.548 139.642L190.766 139.92C192.095 137.047 192.352 134.461 191.535 132.16L191.119 130.987C190.101 128.118 187.544 127.117 183.447 127.984L179.145 129.51ZM186.968 126.734L187.106 127.126L188.949 127.353L188.81 126.962L187.359 126.596L186.968 126.734ZM192.431 130.961L193.706 135.794L194.488 135.516L194.071 134.343L193.907 132.639L192.822 130.823L192.431 130.961ZM196.28 133.119L196.545 140.071L196.683 140.462L197.074 140.323L196.948 133.762L196.671 132.98L196.28 133.119ZM193.34 137.245L193.113 139.087L193.504 138.948L193.731 137.106L193.34 137.245ZM193.491 145.118C194.072 144.808 194.707 143.702 195.396 141.8L195.258 141.409L193.491 145.118ZM185.328 150.657L185.466 151.049L187.031 150.493L188.709 149.017L188.57 148.626L188.179 148.765L185.328 150.657ZM182.337 152.159L183.145 153.194L183.927 152.916L184.432 151.856L184.293 151.465L183.902 151.604L182.867 152.411L182.337 152.159ZM178.868 156.033L179.259 155.894L179.397 156.285L178.893 157.345L178.502 157.484L178.363 157.092L178.868 156.033Z" fill="black"/>
<path opacity="0.5" d="M58.6587 226.071C57.2546 226.192 56.1191 226.106 55.2522 225.812C54.3832 225.513 53.7789 224.923 53.4394 224.043C53.2011 223.425 53.1537 222.806 53.2974 222.186C53.4465 221.563 53.7735 220.994 54.2782 220.479C54.7862 219.956 55.4393 219.541 56.2375 219.233C57.1067 218.898 57.9227 218.775 58.6854 218.864C59.4537 218.95 60.1111 219.205 60.6575 219.629C61.2095 220.05 61.6078 220.578 61.8524 221.212L60.2534 221.829C59.9834 221.129 59.5459 220.654 58.9407 220.404C58.3334 220.149 57.5979 220.187 56.7341 220.521C55.9305 220.831 55.3895 221.244 55.1111 221.759C54.8328 222.275 54.8053 222.822 55.0289 223.402C55.1596 223.741 55.3703 224.002 55.6607 224.185C55.9512 224.368 56.3387 224.485 56.8234 224.537C57.3081 224.589 57.917 224.58 58.6502 224.511C59.6677 224.413 60.525 224.422 61.2222 224.536C61.9249 224.648 62.5004 224.878 62.9488 225.226C63.4005 225.567 63.7455 226.046 63.9838 226.664C64.2306 227.303 64.2756 227.933 64.1189 228.552C63.9656 229.164 63.6252 229.723 63.0977 230.227C62.5703 230.732 61.8884 231.146 61.052 231.469C60.2921 231.762 59.5112 231.903 58.7094 231.892C57.911 231.874 57.1903 231.674 56.5476 231.294C55.9048 230.914 55.4369 230.344 55.1437 229.584L56.7345 228.971C56.937 229.495 57.2369 229.882 57.6343 230.131C58.0371 230.377 58.4899 230.501 58.9926 230.502C59.5008 230.5 60.0227 230.396 60.5585 230.19C61.373 229.875 61.939 229.462 62.2565 228.951C62.5741 228.439 62.6189 227.888 62.3912 227.297C62.2414 226.909 62.035 226.618 61.7719 226.424C61.5121 226.223 61.1399 226.097 60.6552 226.045C60.1684 225.988 59.5029 225.997 58.6587 226.071ZM70.6975 227.559C70.3898 227.804 70.0201 228.009 69.5882 228.176C68.9704 228.414 68.4013 228.42 67.8807 228.194C67.3655 227.966 66.9466 227.433 66.6239 226.597L64.4981 221.086L62.8827 221.71L62.4367 220.553L64.0521 219.93L63.2201 217.774L64.7535 217.182L65.5855 219.339L67.2419 218.7L67.6879 219.856L66.0315 220.495L68.1605 226.013C68.3229 226.434 68.52 226.685 68.7519 226.765C68.9817 226.84 69.2469 226.819 69.5476 226.703C69.6624 226.659 69.7849 226.602 69.9153 226.533C70.0435 226.458 70.1444 226.394 70.218 226.341L70.6975 227.559ZM72.566 216.457C72.6644 216.419 72.7927 216.385 72.9508 216.356C73.1069 216.321 73.2175 216.306 73.2827 216.313L73.8237 217.715C73.5717 217.762 73.3146 217.836 73.0522 217.937C72.5492 218.131 72.1715 218.406 71.9191 218.76C71.6721 219.113 71.5419 219.525 71.5284 219.995L73.9611 226.3L72.4277 226.892L69.0049 218.019L70.4973 217.444L70.9192 218.44C71.0054 217.979 71.1844 217.581 71.4562 217.243C71.726 216.901 72.0959 216.639 72.566 216.457ZM83.7189 217.92L77.7165 220.236C77.9459 220.781 78.2536 221.237 78.6398 221.603C79.0259 221.969 79.4637 222.209 79.953 222.321C80.4457 222.426 80.9545 222.378 81.4793 222.175C81.9932 221.977 82.3959 221.702 82.6875 221.351C82.9846 220.998 83.2058 220.57 83.3513 220.068L84.5563 220.432C84.4223 221.062 84.1442 221.643 83.7219 222.177C83.2976 222.705 82.6809 223.125 81.8718 223.437C81.0627 223.749 80.2787 223.841 79.5197 223.713C78.7606 223.585 78.0862 223.261 77.4963 222.742C76.9118 222.22 76.4604 221.546 76.1419 220.721L76.0059 220.368C75.6495 219.444 75.5188 218.568 75.6139 217.74C75.7069 216.907 75.9779 216.193 76.427 215.599C76.8816 215.003 77.4478 214.574 78.1256 214.312C78.9511 213.994 79.7062 213.916 80.3908 214.079C81.0787 214.235 81.6794 214.587 82.1928 215.136C82.7061 215.686 83.1273 216.387 83.4563 217.239L83.7189 217.92ZM81.6667 217.167C81.3551 216.489 80.9429 215.983 80.4302 215.647C79.9208 215.303 79.3108 215.268 78.6002 215.542C77.9879 215.779 77.5632 216.2 77.3262 216.806C77.0924 217.405 77.0808 218.132 77.2911 218.987L81.711 217.282L81.6667 217.167ZM93.0586 216.71C93.1788 217.021 93.3306 217.333 93.5139 217.646C93.6951 217.953 93.8792 218.202 94.0662 218.393L94.1168 218.525L92.5178 219.141C92.3426 218.964 92.1524 218.683 91.9471 218.297C91.7675 218.743 91.5008 219.151 91.147 219.52C90.7965 219.881 90.3643 220.161 89.8504 220.359C89.26 220.587 88.6909 220.674 88.1432 220.622C87.5987 220.562 87.1238 220.381 86.7184 220.079C86.3185 219.775 86.0246 219.379 85.8369 218.893C85.5944 218.264 85.55 217.669 85.7039 217.107C85.8631 216.543 86.1985 216.037 86.7101 215.588C87.2249 215.132 87.8896 214.747 88.7042 214.433L90.1966 213.857L89.9245 213.152C89.7157 212.611 89.391 212.249 88.9504 212.068C88.5131 211.878 87.9938 211.9 87.3925 212.132C87.0262 212.273 86.7235 212.465 86.4844 212.708C86.2431 212.946 86.0827 213.205 86.0031 213.487C85.9268 213.762 85.9371 214.025 86.0342 214.276L84.5008 214.868C84.3341 214.436 84.3204 213.961 84.4596 213.442C84.5987 212.924 84.8876 212.435 85.3263 211.977C85.763 211.514 86.3257 211.149 87.0145 210.883C87.6705 210.63 88.2877 210.521 88.8662 210.555C89.448 210.582 89.9648 210.766 90.4165 211.106C90.8661 211.442 91.2154 211.932 91.4642 212.577L93.0586 216.71ZM89.5657 218.962C89.9156 218.827 90.2176 218.641 90.4719 218.405C90.7295 218.161 90.9287 217.896 91.0693 217.609C91.2099 217.322 91.2923 217.039 91.3164 216.76L90.6078 214.923L89.3614 215.404C88.4867 215.741 87.8708 216.139 87.5137 216.597C87.1545 217.05 87.0793 217.547 87.2881 218.088C87.3999 218.378 87.5656 218.612 87.7854 218.791C88.0052 218.97 88.2672 219.079 88.5714 219.119C88.8734 219.153 89.2049 219.101 89.5657 218.962ZM99.9552 216.272C99.6475 216.517 99.2777 216.722 98.8459 216.889C98.2281 217.127 97.6589 217.133 97.1383 216.907C96.6232 216.678 96.2043 216.146 95.8816 215.31L93.7558 209.799L92.1404 210.422L91.6943 209.266L93.3098 208.643L92.4778 206.486L94.0112 205.895L94.8432 208.052L96.4996 207.412L96.9456 208.569L95.2892 209.208L97.4182 214.726C97.5806 215.147 97.7777 215.398 98.0096 215.478C98.2394 215.553 98.5046 215.532 98.8052 215.416C98.92 215.372 99.0426 215.315 99.1729 215.246C99.3012 215.171 99.4021 215.107 99.4756 215.054L99.9552 216.272ZM107.705 210.061C107.878 210.591 107.889 211.149 107.738 211.734C107.585 212.315 107.293 212.845 106.863 213.325C106.438 213.803 105.92 214.16 105.307 214.396C104.449 214.727 103.646 214.811 102.899 214.647C102.154 214.476 101.506 214.113 100.953 213.56C100.399 213.002 99.9632 212.313 99.6468 211.493L99.5139 211.148C99.1976 210.328 99.0584 209.528 99.0963 208.747C99.1321 207.961 99.3693 207.257 99.8078 206.636C100.25 206.007 100.9 205.527 101.758 205.195C102.436 204.934 103.091 204.841 103.723 204.918C104.361 204.992 104.925 205.217 105.416 205.593C105.904 205.964 106.279 206.447 106.541 207.043L105.089 207.603C104.921 207.247 104.688 206.954 104.392 206.723C104.093 206.486 103.757 206.34 103.383 206.283C103.01 206.226 102.626 206.274 102.233 206.425C101.648 206.651 101.234 206.987 100.991 207.432C100.746 207.872 100.64 208.362 100.673 208.902C100.703 209.437 100.828 209.988 101.047 210.557L101.18 210.901C101.53 211.809 102.009 212.497 102.617 212.966C103.231 213.432 103.969 213.499 104.833 213.166C105.188 213.029 105.491 212.827 105.74 212.562C105.992 212.288 106.166 211.983 106.262 211.644C106.355 211.3 106.353 210.959 106.253 210.621L107.705 210.061ZM111.147 201.573C113.044 200.841 114.407 201.55 115.236 203.698L117.479 209.512L115.945 210.104L113.696 204.273C113.435 203.595 113.097 203.16 112.684 202.968C112.276 202.774 111.777 202.791 111.186 203.018C110.716 203.2 110.342 203.492 110.064 203.894C109.792 204.294 109.629 204.753 109.577 205.269L112.026 211.616L110.492 212.207L105.633 199.612L107.167 199.02L109.008 203.793C109.181 203.28 109.448 202.835 109.811 202.456C110.171 202.072 110.617 201.778 111.147 201.573ZM121.768 202.657C121.437 201.799 121.303 200.965 121.368 200.155C121.432 199.345 121.693 198.629 122.15 198.007C122.61 197.377 123.245 196.906 124.054 196.594C124.874 196.278 125.666 196.198 126.43 196.356C127.192 196.508 127.869 196.862 128.461 197.419C129.052 197.976 129.514 198.683 129.845 199.541L129.917 199.73C130.249 200.588 130.382 201.422 130.318 202.232C130.251 203.037 129.988 203.754 129.527 204.383C129.07 205.006 128.434 205.474 127.62 205.788C126.805 206.102 126.017 206.184 125.255 206.032C124.496 205.872 123.819 205.518 123.224 204.969C122.633 204.412 122.172 203.704 121.84 202.846L121.768 202.657ZM123.374 202.254C123.606 202.856 123.911 203.369 124.288 203.795C124.672 204.219 125.109 204.505 125.6 204.655C126.089 204.799 126.604 204.767 127.145 204.558C127.681 204.351 128.082 204.031 128.347 203.595C128.61 203.155 128.739 202.65 128.733 202.08C128.732 201.509 128.616 200.923 128.384 200.322L128.311 200.133C128.079 199.532 127.772 199.019 127.388 198.595C127.005 198.172 126.568 197.885 126.077 197.735C125.586 197.586 125.07 197.615 124.528 197.824C123.993 198.031 123.593 198.354 123.33 198.795C123.072 199.234 122.943 199.739 122.944 200.31C122.95 200.879 123.069 201.464 123.301 202.066L123.374 202.254ZM137.04 191.773L140.463 200.645L139.004 201.208L138.641 200.34C138.318 201.262 137.585 201.944 136.443 202.384C135.53 202.737 134.713 202.744 133.993 202.406C133.272 202.069 132.693 201.332 132.254 200.195L130.046 194.471L131.579 193.879L133.794 199.619C134.078 200.357 134.43 200.821 134.849 201.012C135.271 201.194 135.72 201.194 136.195 201.01C137.343 200.567 137.946 199.842 138.003 198.834L135.507 192.364L137.04 191.773ZM146.531 198.304C146.224 198.548 145.854 198.754 145.422 198.92C144.804 199.159 144.235 199.165 143.714 198.938C143.199 198.71 142.78 198.178 142.458 197.341L140.332 191.831L138.717 192.454L138.27 191.298L139.886 190.675L139.054 188.518L140.587 187.927L141.419 190.083L143.076 189.444L143.522 190.6L141.865 191.239L143.994 196.758C144.157 197.179 144.354 197.43 144.586 197.51C144.815 197.584 145.081 197.564 145.381 197.448C145.496 197.403 145.619 197.347 145.749 197.277C145.877 197.203 145.978 197.139 146.052 197.085L146.531 198.304ZM150.287 191.655C149.956 190.797 149.823 189.963 149.887 189.153C149.952 188.343 150.212 187.627 150.669 187.005C151.13 186.375 151.765 185.904 152.574 185.592C153.394 185.275 154.186 185.196 154.95 185.353C155.712 185.505 156.389 185.86 156.98 186.416C157.572 186.973 158.033 187.681 158.364 188.539L158.437 188.728C158.768 189.586 158.902 190.42 158.837 191.23C158.771 192.034 158.507 192.751 158.047 193.381C157.59 194.003 156.954 194.472 156.139 194.786C155.325 195.1 154.537 195.181 153.775 195.029C153.016 194.87 152.339 194.515 151.744 193.966C151.153 193.409 150.691 192.702 150.36 191.844L150.287 191.655ZM151.893 191.252C152.125 191.853 152.43 192.367 152.808 192.793C153.191 193.216 153.629 193.503 154.12 193.653C154.609 193.797 155.124 193.765 155.665 193.556C156.201 193.349 156.601 193.028 156.867 192.593C157.13 192.152 157.259 191.647 157.253 191.078C157.252 190.507 157.136 189.92 156.904 189.319L156.831 189.13C156.599 188.529 156.291 188.017 155.908 187.593C155.525 187.169 155.088 186.883 154.597 186.733C154.105 186.583 153.589 186.613 153.048 186.822C152.512 187.028 152.113 187.352 151.85 187.793C151.592 188.231 151.463 188.736 151.464 189.308C151.47 189.877 151.589 190.462 151.821 191.063L151.893 191.252ZM161.405 179.377C160.919 179.565 160.598 179.855 160.441 180.248C160.283 180.636 160.307 181.098 160.514 181.633L160.878 182.576L162.764 181.849L163.21 183.005L161.324 183.733L164.301 191.449L162.767 192.04L159.791 184.324L158.397 184.862L157.951 183.706L159.345 183.168L158.981 182.225C158.616 181.279 158.592 180.453 158.91 179.746C159.231 179.032 159.851 178.498 160.769 178.144C161.103 178.015 161.467 177.925 161.861 177.873L162.251 179.126C161.988 179.178 161.706 179.261 161.405 179.377ZM173.655 183.365C172.516 183.554 171.599 183.556 170.906 183.371C170.219 183.184 169.741 182.743 169.473 182.049C169.292 181.579 169.262 181.094 169.383 180.595C169.505 180.096 169.769 179.633 170.176 179.206C170.588 178.777 171.117 178.438 171.762 178.189C172.45 177.924 173.099 177.815 173.708 177.862C174.317 177.91 174.836 178.093 175.267 178.41C175.7 178.72 176.016 179.132 176.214 179.646L174.681 180.238C174.584 179.986 174.416 179.771 174.178 179.593C173.94 179.415 173.65 179.307 173.309 179.269C172.971 179.224 172.613 179.274 172.236 179.419C171.837 179.573 171.531 179.764 171.317 179.991C171.101 180.212 170.969 180.448 170.921 180.699C170.877 180.942 170.899 181.179 170.988 181.408C171.078 181.643 171.209 181.819 171.379 181.935C171.553 182.044 171.809 182.105 172.147 182.119C172.491 182.131 172.962 182.091 173.561 181.998C174.37 181.881 175.051 181.847 175.604 181.898C176.157 181.948 176.61 182.097 176.963 182.344C177.321 182.589 177.592 182.949 177.776 183.424C177.974 183.938 178.008 184.45 177.877 184.958C177.745 185.462 177.462 185.925 177.03 186.35C176.595 186.769 176.035 187.11 175.352 187.374C174.598 187.665 173.893 187.783 173.237 187.728C172.585 187.666 172.032 187.468 171.576 187.135C171.121 186.802 170.797 186.384 170.603 185.881L172.136 185.289C172.31 185.674 172.549 185.952 172.854 186.124C173.156 186.29 173.482 186.368 173.83 186.359C174.184 186.349 174.533 186.277 174.878 186.144C175.277 185.99 175.597 185.803 175.839 185.584C176.085 185.358 176.244 185.12 176.318 184.872C176.39 184.618 176.378 184.369 176.283 184.123C176.188 183.877 176.054 183.683 175.881 183.543C175.707 183.403 175.443 183.313 175.089 183.274C174.735 183.235 174.257 183.265 173.655 183.365ZM184.465 183.67C184.157 183.914 183.787 184.12 183.355 184.286C182.738 184.525 182.168 184.531 181.648 184.304C181.133 184.076 180.714 183.544 180.391 182.707L178.265 177.197L176.65 177.82L176.204 176.664L177.819 176.041L176.987 173.884L178.521 173.293L179.353 175.449L181.009 174.81L181.455 175.966L179.799 176.605L181.928 182.124C182.09 182.545 182.287 182.795 182.519 182.876C182.749 182.95 183.014 182.93 183.315 182.814C183.429 182.769 183.552 182.713 183.682 182.643C183.811 182.569 183.911 182.505 183.985 182.451L184.465 183.67ZM186.333 172.568C186.432 172.53 186.56 172.496 186.718 172.466C186.874 172.431 186.985 172.417 187.05 172.423L187.591 173.825C187.339 173.872 187.082 173.946 186.819 174.048C186.316 174.242 185.939 174.516 185.686 174.871C185.439 175.224 185.309 175.635 185.296 176.105L187.728 182.411L186.195 183.002L182.772 174.13L184.264 173.554L184.686 174.55C184.772 174.09 184.951 173.691 185.223 173.354C185.493 173.011 185.863 172.749 186.333 172.568ZM197.486 174.031L191.484 176.346C191.713 176.892 192.021 177.348 192.407 177.714C192.793 178.08 193.231 178.319 193.72 178.432C194.213 178.537 194.722 178.488 195.246 178.286C195.76 178.088 196.163 177.813 196.455 177.462C196.752 177.109 196.973 176.681 197.118 176.179L198.323 176.543C198.189 177.173 197.911 177.754 197.489 178.287C197.065 178.815 196.448 179.235 195.639 179.548C194.83 179.86 194.046 179.952 193.287 179.824C192.528 179.696 191.853 179.372 191.263 178.852C190.679 178.33 190.227 177.657 189.909 176.831L189.773 176.479C189.417 175.555 189.286 174.679 189.381 173.851C189.474 173.017 189.745 172.304 190.194 171.709C190.649 171.113 191.215 170.685 191.893 170.423C192.718 170.105 193.473 170.027 194.158 170.19C194.846 170.345 195.446 170.697 195.96 171.247C196.473 171.796 196.894 172.497 197.223 173.35L197.486 174.031ZM195.434 173.277C195.122 172.6 194.71 172.093 194.197 171.757C193.688 171.414 193.078 171.379 192.367 171.653C191.755 171.889 191.33 172.311 191.093 172.917C190.86 173.516 190.848 174.243 191.058 175.097L195.478 173.392L195.434 173.277ZM206.408 170.589L200.405 172.904C200.635 173.45 200.942 173.906 201.328 174.272C201.715 174.638 202.152 174.877 202.642 174.99C203.134 175.095 203.643 175.047 204.168 174.844C204.682 174.646 205.085 174.371 205.376 174.02C205.673 173.667 205.895 173.239 206.04 172.737L207.245 173.101C207.111 173.731 206.833 174.312 206.411 174.846C205.986 175.374 205.37 175.794 204.561 176.106C203.751 176.418 202.967 176.51 202.208 176.382C201.449 176.254 200.775 175.93 200.185 175.41C199.601 174.888 199.149 174.215 198.831 173.389L198.695 173.037C198.338 172.113 198.208 171.237 198.303 170.409C198.396 169.575 198.667 168.862 199.116 168.268C199.57 167.672 200.136 167.243 200.814 166.981C201.64 166.663 202.395 166.585 203.079 166.748C203.767 166.903 204.368 167.256 204.881 167.805C205.395 168.354 205.816 169.055 206.145 169.908L206.408 170.589ZM204.355 169.835C204.044 169.158 203.632 168.651 203.119 168.315C202.61 167.972 202 167.937 201.289 168.211C200.677 168.447 200.252 168.869 200.015 169.475C199.781 170.074 199.769 170.801 199.98 171.655L204.4 169.95L204.355 169.835ZM211.359 168.82C210.219 169.008 209.303 169.01 208.61 168.825C207.922 168.638 207.445 168.198 207.177 167.504C206.995 167.033 206.966 166.549 207.087 166.05C207.208 165.551 207.473 165.088 207.879 164.661C208.292 164.232 208.82 163.893 209.465 163.644C210.154 163.378 210.803 163.269 211.412 163.317C212.021 163.365 212.54 163.547 212.97 163.865C213.404 164.175 213.72 164.587 213.918 165.101L212.385 165.692C212.288 165.441 212.12 165.226 211.882 165.048C211.643 164.87 211.354 164.762 211.012 164.724C210.675 164.678 210.317 164.728 209.94 164.874C209.541 165.028 209.234 165.218 209.02 165.445C208.804 165.667 208.673 165.903 208.625 166.154C208.581 166.397 208.603 166.633 208.691 166.863C208.782 167.098 208.913 167.274 209.083 167.39C209.257 167.499 209.513 167.56 209.851 167.574C210.195 167.586 210.666 167.545 211.264 167.453C212.073 167.335 212.754 167.302 213.308 167.352C213.861 167.402 214.314 167.551 214.667 167.798C215.025 168.043 215.296 168.403 215.479 168.879C215.677 169.393 215.711 169.904 215.581 170.413C215.449 170.916 215.166 171.38 214.733 171.804C214.298 172.223 213.739 172.565 213.056 172.828C212.301 173.119 211.596 173.238 210.941 173.183C210.289 173.12 209.735 172.922 209.28 172.589C208.825 172.256 208.5 171.838 208.306 171.335L209.84 170.744C210.014 171.129 210.253 171.407 210.558 171.578C210.86 171.744 211.186 171.823 211.534 171.814C211.888 171.803 212.237 171.731 212.581 171.598C212.98 171.444 213.301 171.258 213.543 171.039C213.788 170.812 213.948 170.575 214.022 170.327C214.093 170.073 214.082 169.823 213.987 169.577C213.892 169.331 213.758 169.138 213.584 168.998C213.411 168.857 213.147 168.767 212.793 168.728C212.439 168.689 211.961 168.72 211.359 168.82Z" fill="black"/>
</g>
<defs>
<filter id="filter0_d_34_7" x="0" y="0" width="711.154" height="561.854" filterUnits="userSpaceOnUse" color-interpolation-filters="sRGB">
<feFlood flood-opacity="0" result="BackgroundImageFix"/>
<feColorMatrix in="SourceAlpha" type="matrix" values="0 0 0 0 0 0 0 0 0 0 0 0 0 0 0 0 0 0 127 0" result="hardAlpha"/>
<feOffset dy="4"/>
<feGaussianBlur stdDeviation="2"/>
<feComposite in2="hardAlpha" operator="out"/>
<feColorMatrix type="matrix" values="0 0 0 0 0 0 0 0 0 0 0 0 0 0 0 0 0 0 0.25 0"/>
<feBlend mode="normal" in2="BackgroundImageFix" result="effect1_dropShadow_34_7"/>
<feBlend mode="normal" in="SourceGraphic" in2="effect1_dropShadow_34_7" result="shape"/>
</filter>
<linearGradient id="paint0_linear_34_7" x1="42.4354" y1="278.243" x2="705.481" y2="274.702" gradientUnits="userSpaceOnUse">
<stop stop-color="#1A7F54"/>
<stop offset="1" stop-color="#7ADBAE"/>
</linearGradient>
<linearGradient id="paint1_linear_34_7" x1="24.9907" y1="304.644" x2="685.712" y2="249.062" gradientUnits="userSpaceOnUse">
<stop stop-color="#1A7F72"/>
<stop offset="1" stop-color="#7ADBAE"/>
</linearGradient>
<clipPath id="clip0_34_7">
<rect width="500" height="663.434" fill="white" transform="matrix(0.00534047 0.999986 0.999986 -0.00534047 41.0593 28.3335)"/>
</clipPath>
<clipPath id="clip1_34_7">
<rect width="500" height="663.434" fill="white" transform="matrix(0.083827 0.99648 0.99648 -0.083827 4 55.6138)"/>
</clipPath>
</defs>
</svg>
